<svg width="17" height="17" viewBox="0 0 17 17" fill="none" xmlns="http://www.w3.org/2000/svg">
<path d="M14.6891 6.46348L10.7219 5.88692L8.94844 2.2916C8.9 2.19317 8.82031 2.11348 8.72188 2.06504C8.475 1.94317 8.175 2.04473 8.05156 2.2916L6.27813 5.88692L2.31094 6.46348C2.20156 6.4791 2.10156 6.53067 2.025 6.60879C1.93244 6.70393 1.88144 6.83192 1.88319 6.96464C1.88495 7.09736 1.93933 7.22395 2.03438 7.3166L4.90469 10.115L4.22656 14.0666C4.21066 14.1585 4.22083 14.2531 4.25593 14.3395C4.29102 14.4259 4.34963 14.5008 4.42511 14.5556C4.50059 14.6104 4.58992 14.643 4.68297 14.6497C4.77602 14.6563 4.86907 14.6367 4.95156 14.5932L8.5 12.7275L12.0484 14.5932C12.1453 14.6447 12.2578 14.6619 12.3656 14.6432C12.6375 14.5963 12.8203 14.3385 12.7734 14.0666L12.0953 10.115L14.9656 7.3166C15.0438 7.24004 15.0953 7.14004 15.1109 7.03067C15.1531 6.75723 14.9625 6.5041 14.6891 6.46348Z" fill="#FEA250"/>
</svg>
