<svg width="61" height="61" viewBox="0 0 61 61" fill="#F53838"  xmlns="http://www.w3.org/2000/svg">
<circle cx="30.6403" cy="30.2529" r="29" stroke="#F53838" stroke-width="2"/>
<path d="M39.3903 29.0029H24.5653L29.1028 23.5529C29.3149 23.2976 29.417 22.9685 29.3865 22.638C29.3561 22.3075 29.1955 22.0026 28.9403 21.7904C28.685 21.5782 28.3559 21.4762 28.0254 21.5066C27.6948 21.5371 27.3899 21.6976 27.1778 21.9529L20.9278 29.4529C20.8857 29.5126 20.8481 29.5752 20.8153 29.6404C20.8153 29.7029 20.8153 29.7404 20.7278 29.8029C20.6711 29.9462 20.6414 30.0988 20.6403 30.2529C20.6414 30.407 20.6711 30.5596 20.7278 30.7029C20.7278 30.7654 20.7278 30.8029 20.8153 30.8654C20.8481 30.9306 20.8857 30.9933 20.9278 31.0529L27.1778 38.5529C27.2953 38.694 27.4425 38.8075 27.6088 38.8853C27.7752 38.963 27.9566 39.0032 28.1403 39.0029C28.4323 39.0035 28.7154 38.9018 28.9403 38.7154C29.0668 38.6105 29.1715 38.4816 29.2481 38.3362C29.3248 38.1907 29.3721 38.0316 29.3872 37.8679C29.4023 37.7042 29.3849 37.5391 29.3361 37.3821C29.2873 37.2251 29.208 37.0792 29.1028 36.9529L24.5653 31.5029H39.3903C39.7218 31.5029 40.0397 31.3712 40.2741 31.1368C40.5086 30.9024 40.6403 30.5844 40.6403 30.2529C40.6403 29.9214 40.5086 29.6034 40.2741 29.369C40.0397 29.1346 39.7218 29.0029 39.3903 29.0029Z" fill="#FFF"/>
</svg>
