<svg width="146" height="167" viewBox="0 0 146 167" fill="none" xmlns="http://www.w3.org/2000/svg">
<path fill-rule="evenodd" clip-rule="evenodd" d="M52.1148 40.6874C52.7716 39.2616 53.5409 38.1541 54.0492 37.5701C54.0592 38.9475 53.8469 40.183 53.5182 41.2567C54.5296 41.7447 55.5806 42.4278 56.5849 43.3705C55.811 43.3471 54.4757 43.1596 52.9831 42.6735C52.2951 44.1907 51.4254 45.2383 50.8552 45.726C50.8938 44.4492 51.1625 43.2255 51.5398 42.1216C50.4732 41.649 49.3925 41.0152 48.429 40.1764C49.1742 40.0891 50.5338 40.1621 52.1148 40.6874Z" fill="url(#paint0_linear_11_48)"/>
<path fill-rule="evenodd" clip-rule="evenodd" d="M46.9234 26.4047C47.3606 25.4557 47.8726 24.7185 48.211 24.3298C48.2176 25.2466 48.0763 26.0689 47.8576 26.7837C48.5308 27.1084 49.2304 27.5632 49.8988 28.1906C49.3837 28.1751 48.4949 28.0503 47.5014 27.7267C47.0434 28.7366 46.4645 29.4339 46.085 29.7586C46.1107 28.9087 46.2895 28.0941 46.5407 27.3594C45.8307 27.0448 45.1114 26.6229 44.47 26.0646C44.9661 26.0064 45.8711 26.055 46.9234 26.4047Z" fill="url(#paint1_linear_11_48)"/>
<path fill-rule="evenodd" clip-rule="evenodd" d="M32.8728 12.2071C33.5295 10.7814 34.2988 9.67383 34.8071 9.08987C34.8171 10.4672 34.6048 11.7027 34.2761 12.7765C35.2875 13.2644 36.3386 13.9475 37.3429 14.8902C36.569 14.8668 35.2336 14.6794 33.7411 14.1932C33.053 15.7105 32.1833 16.7581 31.6131 17.2458C31.6517 15.9689 31.9204 14.7452 32.2978 13.6413C31.2312 13.1687 30.1505 12.5349 29.1869 11.6962C29.9322 11.6088 31.2918 11.6818 32.8728 12.2071Z" fill="url(#paint2_linear_11_48)"/>
<path fill-rule="evenodd" clip-rule="evenodd" d="M30.6464 44.1723C31.6126 42.0746 32.7444 40.4452 33.4923 39.5861C33.507 41.6125 33.1947 43.4302 32.7111 45.0099C34.1991 45.7278 35.7454 46.7329 37.2229 48.1198C36.0844 48.0853 34.1198 47.8095 31.9239 47.0944C30.9116 49.3265 29.632 50.8678 28.7931 51.5853C28.85 49.7068 29.2452 47.9064 29.8005 46.2824C28.2312 45.587 26.6412 44.6546 25.2237 43.4206C26.3201 43.292 28.3204 43.3994 30.6464 44.1723Z" fill="url(#paint3_linear_11_48)"/>
<circle cx="36.4595" cy="29.8162" r="0.846528" transform="rotate(21.3865 36.4595 29.8162)" fill="#2F235A"/>
<circle cx="57.4197" cy="19.1721" r="0.846528" transform="rotate(21.3865 57.4197 19.1721)" fill="#FE9076"/>
<circle cx="17.1846" cy="23.7964" r="0.846528" transform="rotate(21.3865 17.1846 23.7964)" fill="#FFA400"/>
<circle cx="35.3625" cy="57.8818" r="0.846528" transform="rotate(21.3865 35.3625 57.8818)" fill="#23BB86"/>
<path d="M56.7766 15.1261C55.953 11.9806 52.9804 4.78678 47.6785 1.17525" stroke="#FE9076" stroke-width="0.736823" stroke-linecap="round"/>
<path d="M14.6862 20.3813C12.6369 17.8569 6.95826 12.5333 0.637968 11.4342" stroke="#FFA400" stroke-width="0.736823" stroke-linecap="round"/>
<path d="M31.7605 59.1121C29.9444 59.7744 25.3726 61.8849 21.6143 65.0282" stroke="#23BB86" stroke-width="0.736823" stroke-linecap="round"/>
<path fill-rule="evenodd" clip-rule="evenodd" d="M94.0653 40.6874C93.4086 39.2616 92.6393 38.1541 92.131 37.5701C92.121 38.9475 92.3333 40.183 92.662 41.2567C91.6506 41.7447 90.5995 42.4278 89.5953 43.3705C90.3691 43.3471 91.7045 43.1596 93.1971 42.6735C93.8851 44.1907 94.7548 45.2383 95.325 45.726C95.2864 44.4492 95.0177 43.2255 94.6403 42.1216C95.7069 41.649 96.7877 41.0152 97.7512 40.1764C97.0059 40.0891 95.6463 40.1621 94.0653 40.6874Z" fill="url(#paint4_linear_11_48)"/>
<path fill-rule="evenodd" clip-rule="evenodd" d="M99.2567 26.4047C98.8196 25.4557 98.3075 24.7185 97.9692 24.3298C97.9625 25.2466 98.1038 26.0689 98.3226 26.7837C97.6494 27.1084 96.9498 27.5632 96.2813 28.1906C96.7964 28.1751 97.6853 28.0503 98.6788 27.7267C99.1368 28.7366 99.7157 29.4339 100.095 29.7586C100.07 28.9087 99.8907 28.0941 99.6395 27.3594C100.349 27.0448 101.069 26.6229 101.71 26.0646C101.214 26.0064 100.309 26.055 99.2567 26.4047Z" fill="url(#paint5_linear_11_48)"/>
<path fill-rule="evenodd" clip-rule="evenodd" d="M113.307 12.2071C112.651 10.7814 111.881 9.67383 111.373 9.08987C111.363 10.4672 111.575 11.7027 111.904 12.7765C110.893 13.2644 109.842 13.9475 108.837 14.8902C109.611 14.8668 110.947 14.6794 112.439 14.1932C113.127 15.7105 113.997 16.7581 114.567 17.2458C114.528 15.9689 114.26 14.7452 113.882 13.6413C114.949 13.1687 116.03 12.5349 116.993 11.6962C116.248 11.6088 114.888 11.6818 113.307 12.2071Z" fill="url(#paint6_linear_11_48)"/>
<path fill-rule="evenodd" clip-rule="evenodd" d="M115.534 44.1723C114.568 42.0746 113.436 40.4452 112.688 39.5861C112.673 41.6125 112.986 43.4302 113.469 45.0099C111.981 45.7278 110.435 46.7329 108.957 48.1198C110.096 48.0853 112.06 47.8095 114.256 47.0944C115.269 49.3265 116.548 50.8678 117.387 51.5853C117.33 49.7068 116.935 47.9064 116.38 46.2824C117.949 45.587 119.539 44.6546 120.956 43.4206C119.86 43.292 117.86 43.3994 115.534 44.1723Z" fill="url(#paint7_linear_11_48)"/>
<circle cx="0.846528" cy="0.846528" r="0.846528" transform="matrix(-0.931142 0.364658 0.364658 0.931142 110.2 28.7192)" fill="#2F235A"/>
<circle cx="0.846528" cy="0.846528" r="0.846528" transform="matrix(-0.931142 0.364658 0.364658 0.931142 89.2401 18.0752)" fill="#FE9076"/>
<circle cx="0.846528" cy="0.846528" r="0.846528" transform="matrix(-0.931142 0.364658 0.364658 0.931142 129.475 22.6995)" fill="#FFA400"/>
<circle cx="0.846528" cy="0.846528" r="0.846528" transform="matrix(-0.931142 0.364658 0.364658 0.931142 111.297 56.7849)" fill="#23BB86"/>
<path d="M89.4036 15.1261C90.2271 11.9806 93.1998 4.78678 98.5017 1.17525" stroke="#FE9076" stroke-width="0.736823" stroke-linecap="round"/>
<path d="M131.494 20.3813C133.543 17.8569 139.222 12.5333 145.542 11.4342" stroke="#FFA400" stroke-width="0.736823" stroke-linecap="round"/>
<path d="M114.42 59.1121C116.236 59.7744 120.808 61.8849 124.566 65.0282" stroke="#23BB86" stroke-width="0.736823" stroke-linecap="round"/>
<rect x="26.9055" y="104.439" width="89.8505" height="62.1103" fill="url(#paint8_linear_11_48)"/>
<mask id="mask0_11_48" style="mask-type:alpha" maskUnits="userSpaceOnUse" x="26" y="104" width="91" height="63">
<rect x="26.9055" y="104.439" width="89.8505" height="62.1103" fill="#C4C4C4"/>
</mask>
<g mask="url(#mask0_11_48)">
<path d="M31.1569 102.858L92.3389 102.858L78.5103 126.869L17.3283 126.869L31.1569 102.858Z" fill="black" fill-opacity="0.07"/>
<rect x="88.0074" y="104.439" width="89.8505" height="62.1103" fill="url(#paint9_linear_11_48)"/>
</g>
<path d="M26.8261 104.439L88.0081 104.439L76.1896 124.162L15.0076 124.162L26.8261 104.439Z" fill="url(#paint10_linear_11_48)"/>
<mask id="mask1_11_48" style="mask-type:alpha" maskUnits="userSpaceOnUse" x="88" y="104" width="29" height="63">
<rect x="88.0081" y="104.439" width="28.7479" height="62.1103" fill="#C4C4C4"/>
</mask>
<g mask="url(#mask1_11_48)">
<path d="M113.256 104.336L84.4633 104.336L97.9925 127.043L126.785 127.043L113.256 104.336Z" fill="black" fill-opacity="0.07"/>
</g>
<path d="M116.801 104.439L88.0081 104.439L99.8266 124.162L128.62 124.162L116.801 104.439Z" fill="url(#paint11_linear_11_48)"/>
<circle cx="56.8335" cy="88.6195" r="8.49082" fill="url(#paint12_linear_11_48)"/>
<circle cx="89.4628" cy="67.6864" r="8.20473" fill="url(#paint13_linear_11_48)"/>
<circle cx="58.708" cy="57.1029" r="6.61631" fill="url(#paint14_linear_11_48)"/>
<circle cx="77.0811" cy="41.9935" r="5.98519" fill="url(#paint15_linear_11_48)"/>
<circle cx="65.3244" cy="25.3704" r="4.6365" fill="url(#paint16_linear_11_48)"/>
<circle cx="73.2911" cy="66.0365" r="1.65" fill="#FFA800" fill-opacity="0.23"/>
<circle cx="100.732" cy="52.1366" r="1.65" fill="#FFA800" fill-opacity="0.23"/>
<circle cx="102.382" cy="25.3705" r="1.65" fill="#FFA800" fill-opacity="0.23"/>
<circle cx="46.6926" cy="28.357" r="1.65" fill="#FFA800" fill-opacity="0.23"/>
<circle cx="80.291" cy="92.284" r="1.65" fill="#FFA800" fill-opacity="0.23"/>
<circle cx="38.8865" cy="62.7364" r="1.65" fill="#FFA800" fill-opacity="0.23"/>
<path d="M116.968 104.733H26.8344L12.9921 19.3853H133.59L116.968 104.733Z" fill="url(#paint17_linear_11_48)"/>
<defs>
<linearGradient id="paint0_linear_11_48" x1="53.7993" y1="38.4735" x2="50.8003" y2="46.1313" gradientUnits="userSpaceOnUse">
<stop stop-color="#FFE89E"/>
<stop offset="1" stop-color="#FFBF1A"/>
</linearGradient>
<linearGradient id="paint1_linear_11_48" x1="48.0447" y1="24.9311" x2="46.0484" y2="30.0284" gradientUnits="userSpaceOnUse">
<stop stop-color="#FFE89E"/>
<stop offset="1" stop-color="#FFBF1A"/>
</linearGradient>
<linearGradient id="paint2_linear_11_48" x1="34.5572" y1="9.99323" x2="31.5582" y2="17.6511" gradientUnits="userSpaceOnUse">
<stop stop-color="#FFE89E"/>
<stop offset="1" stop-color="#FFBF1A"/>
</linearGradient>
<linearGradient id="paint3_linear_11_48" x1="33.1247" y1="40.9151" x2="28.7124" y2="52.1816" gradientUnits="userSpaceOnUse">
<stop stop-color="#FFE89E"/>
<stop offset="1" stop-color="#FFBF1A"/>
</linearGradient>
<linearGradient id="paint4_linear_11_48" x1="92.3809" y1="38.4735" x2="95.3799" y2="46.1313" gradientUnits="userSpaceOnUse">
<stop stop-color="#FFE89E"/>
<stop offset="1" stop-color="#FFBF1A"/>
</linearGradient>
<linearGradient id="paint5_linear_11_48" x1="98.1355" y1="24.9311" x2="100.132" y2="30.0284" gradientUnits="userSpaceOnUse">
<stop stop-color="#FFE89E"/>
<stop offset="1" stop-color="#FFBF1A"/>
</linearGradient>
<linearGradient id="paint6_linear_11_48" x1="111.623" y1="9.99323" x2="114.622" y2="17.6511" gradientUnits="userSpaceOnUse">
<stop stop-color="#FFE89E"/>
<stop offset="1" stop-color="#FFBF1A"/>
</linearGradient>
<linearGradient id="paint7_linear_11_48" x1="113.056" y1="40.9151" x2="117.468" y2="52.1816" gradientUnits="userSpaceOnUse">
<stop stop-color="#FFE89E"/>
<stop offset="1" stop-color="#FFBF1A"/>
</linearGradient>
<linearGradient id="paint8_linear_11_48" x1="56.9197" y1="92.9404" x2="21.1095" y2="191.572" gradientUnits="userSpaceOnUse">
<stop stop-color="#FFD481"/>
<stop offset="1" stop-color="#FA620C"/>
</linearGradient>
<linearGradient id="paint9_linear_11_48" x1="42.2353" y1="100.5" x2="150.915" y2="216.64" gradientUnits="userSpaceOnUse">
<stop stop-color="#FFD481"/>
<stop offset="0.83311" stop-color="#FA620C"/>
</linearGradient>
<linearGradient id="paint10_linear_11_48" x1="28.0852" y1="97.3905" x2="25.1775" y2="139.413" gradientUnits="userSpaceOnUse">
<stop stop-color="#FFD481"/>
<stop offset="1" stop-color="#FA620C"/>
</linearGradient>
<linearGradient id="paint11_linear_11_48" x1="121.344" y1="97.3905" x2="126.516" y2="138.971" gradientUnits="userSpaceOnUse">
<stop stop-color="#FFD481"/>
<stop offset="1" stop-color="#FA620C"/>
</linearGradient>
<linearGradient id="paint12_linear_11_48" x1="57.4764" y1="77.3264" x2="55.8613" y2="100.245" gradientUnits="userSpaceOnUse">
<stop stop-color="#FF9F81"/>
<stop offset="1" stop-color="#F53838"/>
</linearGradient>
<linearGradient id="paint13_linear_11_48" x1="90.0841" y1="56.7739" x2="88.5234" y2="78.9204" gradientUnits="userSpaceOnUse">
<stop stop-color="#FF9F81"/>
<stop offset="1" stop-color="#F53838"/>
</linearGradient>
<linearGradient id="paint14_linear_11_48" x1="59.209" y1="48.303" x2="57.9505" y2="66.162" gradientUnits="userSpaceOnUse">
<stop stop-color="#FF9F81"/>
<stop offset="1" stop-color="#F53838"/>
</linearGradient>
<linearGradient id="paint15_linear_11_48" x1="77.5344" y1="34.033" x2="76.3959" y2="50.1885" gradientUnits="userSpaceOnUse">
<stop stop-color="#FF9F81"/>
<stop offset="1" stop-color="#F53838"/>
</linearGradient>
<linearGradient id="paint16_linear_11_48" x1="65.6755" y1="19.2037" x2="64.7935" y2="31.7187" gradientUnits="userSpaceOnUse">
<stop stop-color="#FF9F81"/>
<stop offset="1" stop-color="#F53838"/>
</linearGradient>
<linearGradient id="paint17_linear_11_48" x1="72.3001" y1="19.3853" x2="72.3001" y2="200.709" gradientUnits="userSpaceOnUse">
<stop stop-color="white" stop-opacity="0"/>
<stop offset="1" stop-color="#FE9277"/>
</linearGradient>
</defs>
</svg>
