<svg width="146" height="167" viewBox="0 0 146 167" fill="none" xmlns="http://www.w3.org/2000/svg">
<path fill-rule="evenodd" clip-rule="evenodd" d="M52.0247 40.5001C52.6815 39.0744 53.4507 37.9668 53.9591 37.3828C53.9691 38.7602 53.7568 39.9957 53.4281 41.0695C54.4395 41.5574 55.4905 42.2406 56.4948 43.1832C55.7209 43.1598 54.3855 42.9724 52.893 42.4863C52.205 44.0035 51.3353 45.051 50.765 45.5388C50.8037 44.2619 51.0723 43.0382 51.4497 41.9344C50.3831 41.4617 49.3024 40.8279 48.3389 39.9892C49.0841 39.9018 50.4437 39.9748 52.0247 40.5001Z" fill="url(#paint0_linear_11_47)"/>
<path fill-rule="evenodd" clip-rule="evenodd" d="M46.8333 26.2174C47.2705 25.2684 47.7825 24.5312 48.1209 24.1425C48.1275 25.0593 47.9862 25.8817 47.7674 26.5964C48.4406 26.9212 49.1403 27.3759 49.8087 28.0034C49.2936 27.9878 48.4048 27.863 47.4113 27.5395C46.9533 28.5494 46.3744 29.2467 45.9948 29.5713C46.0205 28.7214 46.1994 27.9069 46.4506 27.1721C45.7406 26.8575 45.0212 26.4356 44.3799 25.8773C44.876 25.8192 45.781 25.8678 46.8333 26.2174Z" fill="url(#paint1_linear_11_47)"/>
<path fill-rule="evenodd" clip-rule="evenodd" d="M32.7827 12.0198C33.4394 10.5941 34.2087 9.48657 34.717 8.90262C34.727 10.28 34.5147 11.5154 34.186 12.5892C35.1974 13.0771 36.2485 13.7603 37.2527 14.703C36.4789 14.6795 35.1435 14.4921 33.6509 14.006C32.9629 15.5232 32.0932 16.5708 31.523 17.0585C31.5616 15.7817 31.8303 14.558 32.2077 13.4541C31.1411 12.9815 30.0603 12.3477 29.0968 11.5089C29.8421 11.4215 31.2017 11.4945 32.7827 12.0198Z" fill="url(#paint2_linear_11_47)"/>
<path fill-rule="evenodd" clip-rule="evenodd" d="M30.5563 43.985C31.5225 41.8874 32.6543 40.2579 33.4022 39.3988C33.4169 41.4252 33.1046 43.2429 32.621 44.8227C34.109 45.5405 35.6553 46.5456 37.1328 47.9325C35.9943 47.8981 34.0296 47.6223 31.8337 46.9071C30.8215 49.1393 29.5419 50.6805 28.703 51.398C28.7598 49.5195 29.1551 47.7192 29.7103 46.0951C28.1411 45.3998 26.5511 44.4673 25.1336 43.2333C26.23 43.1048 28.2303 43.2122 30.5563 43.985Z" fill="url(#paint3_linear_11_47)"/>
<circle cx="36.3693" cy="29.6289" r="0.846528" transform="rotate(21.3865 36.3693 29.6289)" fill="#2F235A"/>
<circle cx="57.3295" cy="18.9849" r="0.846528" transform="rotate(21.3865 57.3295 18.9849)" fill="#FE9076"/>
<circle cx="17.0945" cy="23.6091" r="0.846528" transform="rotate(21.3865 17.0945 23.6091)" fill="#FFA400"/>
<circle cx="35.2724" cy="57.6946" r="0.846528" transform="rotate(21.3865 35.2724 57.6946)" fill="#23BB86"/>
<path d="M56.6865 14.9389C55.8629 11.7934 52.8903 4.59952 47.5883 0.987993" stroke="#FE9076" stroke-width="0.736823" stroke-linecap="round"/>
<path d="M14.596 20.1941C12.5468 17.6696 6.86811 12.346 0.547819 11.247" stroke="#FFA400" stroke-width="0.736823" stroke-linecap="round"/>
<path d="M31.6703 58.9248C29.8543 59.5871 25.2825 61.6976 21.5241 64.8409" stroke="#23BB86" stroke-width="0.736823" stroke-linecap="round"/>
<path fill-rule="evenodd" clip-rule="evenodd" d="M93.9753 40.5001C93.3185 39.0744 92.5493 37.9668 92.0409 37.3828C92.0309 38.7602 92.2432 39.9957 92.5719 41.0695C91.5605 41.5574 90.5095 42.2406 89.5052 43.1832C90.2791 43.1598 91.6145 42.9724 93.107 42.4863C93.795 44.0035 94.6647 45.051 95.235 45.5388C95.1963 44.2619 94.9277 43.0382 94.5503 41.9344C95.6169 41.4617 96.6976 40.8279 97.6611 39.9892C96.9159 39.9018 95.5563 39.9748 93.9753 40.5001Z" fill="url(#paint4_linear_11_47)"/>
<path fill-rule="evenodd" clip-rule="evenodd" d="M99.1667 26.2174C98.7295 25.2684 98.2175 24.5312 97.8791 24.1425C97.8725 25.0593 98.0138 25.8817 98.2326 26.5964C97.5594 26.9212 96.8597 27.3759 96.1913 28.0034C96.7064 27.9878 97.5952 27.863 98.5887 27.5395C99.0467 28.5494 99.6256 29.2467 100.005 29.5713C99.9795 28.7214 99.8006 27.9069 99.5494 27.1721C100.259 26.8575 100.979 26.4356 101.62 25.8773C101.124 25.8192 100.219 25.8678 99.1667 26.2174Z" fill="url(#paint5_linear_11_47)"/>
<path fill-rule="evenodd" clip-rule="evenodd" d="M113.217 12.0198C112.561 10.5941 111.791 9.48657 111.283 8.90262C111.273 10.28 111.485 11.5154 111.814 12.5892C110.803 13.0771 109.752 13.7603 108.747 14.703C109.521 14.6795 110.857 14.4921 112.349 14.006C113.037 15.5232 113.907 16.5708 114.477 17.0585C114.438 15.7817 114.17 14.558 113.792 13.4541C114.859 12.9815 115.94 12.3477 116.903 11.5089C116.158 11.4215 114.798 11.4945 113.217 12.0198Z" fill="url(#paint6_linear_11_47)"/>
<path fill-rule="evenodd" clip-rule="evenodd" d="M115.444 43.985C114.477 41.8874 113.346 40.2579 112.598 39.3988C112.583 41.4252 112.895 43.2429 113.379 44.8227C111.891 45.5405 110.345 46.5456 108.867 47.9325C110.006 47.8981 111.97 47.6223 114.166 46.9071C115.179 49.1393 116.458 50.6805 117.297 51.398C117.24 49.5195 116.845 47.7192 116.29 46.0951C117.859 45.3998 119.449 44.4673 120.866 43.2333C119.77 43.1048 117.77 43.2122 115.444 43.985Z" fill="url(#paint7_linear_11_47)"/>
<circle cx="0.846528" cy="0.846528" r="0.846528" transform="matrix(-0.931142 0.364658 0.364658 0.931142 110.11 28.532)" fill="#2F235A"/>
<circle cx="0.846528" cy="0.846528" r="0.846528" transform="matrix(-0.931142 0.364658 0.364658 0.931142 89.15 17.8879)" fill="#FE9076"/>
<circle cx="0.846528" cy="0.846528" r="0.846528" transform="matrix(-0.931142 0.364658 0.364658 0.931142 129.385 22.5122)" fill="#FFA400"/>
<circle cx="0.846528" cy="0.846528" r="0.846528" transform="matrix(-0.931142 0.364658 0.364658 0.931142 111.207 56.5977)" fill="#23BB86"/>
<path d="M89.3135 14.9389C90.1371 11.7934 93.1097 4.59952 98.4117 0.987993" stroke="#FE9076" stroke-width="0.736823" stroke-linecap="round"/>
<path d="M131.404 20.1941C133.453 17.6696 139.132 12.346 145.452 11.247" stroke="#FFA400" stroke-width="0.736823" stroke-linecap="round"/>
<path d="M114.33 58.9248C116.146 59.5871 120.718 61.6976 124.476 64.8409" stroke="#23BB86" stroke-width="0.736823" stroke-linecap="round"/>
<rect x="28.0748" y="104.252" width="89.8505" height="62.1103" fill="url(#paint8_linear_11_47)"/>
<mask id="mask0_11_47" style="mask-type:alpha" maskUnits="userSpaceOnUse" x="28" y="104" width="90" height="63">
<rect x="28.0748" y="104.252" width="89.8505" height="62.1103" fill="#C4C4C4"/>
</mask>
<g mask="url(#mask0_11_47)">
<path d="M32.3262 102.67L93.5081 102.67L79.6796 126.682L18.4976 126.682L32.3262 102.67Z" fill="black" fill-opacity="0.07"/>
<rect x="89.1767" y="104.252" width="89.8505" height="62.1103" fill="url(#paint9_linear_11_47)"/>
</g>
<path d="M27.9954 104.252L89.1773 104.252L77.3588 123.974L16.1768 123.974L27.9954 104.252Z" fill="url(#paint10_linear_11_47)"/>
<mask id="mask1_11_47" style="mask-type:alpha" maskUnits="userSpaceOnUse" x="89" y="104" width="29" height="63">
<rect x="89.1773" y="104.252" width="28.7479" height="62.1103" fill="#C4C4C4"/>
</mask>
<g mask="url(#mask1_11_47)">
<path d="M114.425 104.149L85.6325 104.149L99.1617 126.856L127.955 126.856L114.425 104.149Z" fill="black" fill-opacity="0.07"/>
</g>
<path d="M117.97 104.252L89.1773 104.252L100.996 123.974L129.789 123.974L117.97 104.252Z" fill="url(#paint11_linear_11_47)"/>
<circle cx="57.9257" cy="88.4322" r="8.49082" fill="url(#paint12_linear_11_47)"/>
<circle cx="91.127" cy="71.7367" r="8.20473" fill="url(#paint13_linear_11_47)"/>
<circle cx="59.8002" cy="56.9156" r="6.61631" fill="url(#paint14_linear_11_47)"/>
<circle cx="85.1418" cy="41.7765" r="5.98519" fill="url(#paint15_linear_11_47)"/>
<circle cx="75.4016" cy="64.1993" r="1.65" fill="#FFA800" fill-opacity="0.23"/>
<circle cx="100.982" cy="51.9493" r="1.65" fill="#FFA800" fill-opacity="0.23"/>
<circle cx="61.4503" cy="32.2403" r="1.65" fill="#FFA800" fill-opacity="0.23"/>
<circle cx="83.4918" cy="92.0968" r="1.65" fill="#FFA800" fill-opacity="0.23"/>
<circle cx="45.3416" cy="65.8492" r="1.65" fill="#FFA800" fill-opacity="0.23"/>
<path d="M118.137 104.546H28.0036L14.1613 19.198H134.759L118.137 104.546Z" fill="url(#paint16_linear_11_47)"/>
<defs>
<linearGradient id="paint0_linear_11_47" x1="53.7092" y1="38.2862" x2="50.7102" y2="45.9441" gradientUnits="userSpaceOnUse">
<stop stop-color="#FFE89E"/>
<stop offset="1" stop-color="#FFBF1A"/>
</linearGradient>
<linearGradient id="paint1_linear_11_47" x1="47.9545" y1="24.7438" x2="45.9583" y2="29.8411" gradientUnits="userSpaceOnUse">
<stop stop-color="#FFE89E"/>
<stop offset="1" stop-color="#FFBF1A"/>
</linearGradient>
<linearGradient id="paint2_linear_11_47" x1="34.4671" y1="9.80598" x2="31.4681" y2="17.4639" gradientUnits="userSpaceOnUse">
<stop stop-color="#FFE89E"/>
<stop offset="1" stop-color="#FFBF1A"/>
</linearGradient>
<linearGradient id="paint3_linear_11_47" x1="33.0345" y1="40.7279" x2="28.6223" y2="51.9944" gradientUnits="userSpaceOnUse">
<stop stop-color="#FFE89E"/>
<stop offset="1" stop-color="#FFBF1A"/>
</linearGradient>
<linearGradient id="paint4_linear_11_47" x1="92.2908" y1="38.2862" x2="95.2898" y2="45.9441" gradientUnits="userSpaceOnUse">
<stop stop-color="#FFE89E"/>
<stop offset="1" stop-color="#FFBF1A"/>
</linearGradient>
<linearGradient id="paint5_linear_11_47" x1="98.0455" y1="24.7438" x2="100.042" y2="29.8411" gradientUnits="userSpaceOnUse">
<stop stop-color="#FFE89E"/>
<stop offset="1" stop-color="#FFBF1A"/>
</linearGradient>
<linearGradient id="paint6_linear_11_47" x1="111.533" y1="9.80598" x2="114.532" y2="17.4639" gradientUnits="userSpaceOnUse">
<stop stop-color="#FFE89E"/>
<stop offset="1" stop-color="#FFBF1A"/>
</linearGradient>
<linearGradient id="paint7_linear_11_47" x1="112.965" y1="40.7279" x2="117.378" y2="51.9944" gradientUnits="userSpaceOnUse">
<stop stop-color="#FFE89E"/>
<stop offset="1" stop-color="#FFBF1A"/>
</linearGradient>
<linearGradient id="paint8_linear_11_47" x1="58.089" y1="92.7529" x2="22.2788" y2="191.385" gradientUnits="userSpaceOnUse">
<stop stop-color="#FFD481"/>
<stop offset="1" stop-color="#FA620C"/>
</linearGradient>
<linearGradient id="paint9_linear_11_47" x1="43.4045" y1="100.313" x2="152.085" y2="216.452" gradientUnits="userSpaceOnUse">
<stop stop-color="#FFD481"/>
<stop offset="0.83311" stop-color="#FA620C"/>
</linearGradient>
<linearGradient id="paint10_linear_11_47" x1="29.2544" y1="97.203" x2="26.3468" y2="139.226" gradientUnits="userSpaceOnUse">
<stop stop-color="#FFD481"/>
<stop offset="1" stop-color="#FA620C"/>
</linearGradient>
<linearGradient id="paint11_linear_11_47" x1="122.513" y1="97.203" x2="127.685" y2="138.784" gradientUnits="userSpaceOnUse">
<stop stop-color="#FFD481"/>
<stop offset="1" stop-color="#FA620C"/>
</linearGradient>
<linearGradient id="paint12_linear_11_47" x1="58.5687" y1="77.1391" x2="56.9536" y2="100.058" gradientUnits="userSpaceOnUse">
<stop stop-color="#FF9F81"/>
<stop offset="1" stop-color="#F53838"/>
</linearGradient>
<linearGradient id="paint13_linear_11_47" x1="91.7483" y1="60.8241" x2="90.1876" y2="82.9707" gradientUnits="userSpaceOnUse">
<stop stop-color="#FF9F81"/>
<stop offset="1" stop-color="#F53838"/>
</linearGradient>
<linearGradient id="paint14_linear_11_47" x1="60.3012" y1="48.1157" x2="59.0427" y2="65.9747" gradientUnits="userSpaceOnUse">
<stop stop-color="#FF9F81"/>
<stop offset="1" stop-color="#F53838"/>
</linearGradient>
<linearGradient id="paint15_linear_11_47" x1="85.5951" y1="33.8159" x2="84.4566" y2="49.9714" gradientUnits="userSpaceOnUse">
<stop stop-color="#FF9F81"/>
<stop offset="1" stop-color="#F53838"/>
</linearGradient>
<linearGradient id="paint16_linear_11_47" x1="73.4693" y1="19.198" x2="73.4693" y2="200.522" gradientUnits="userSpaceOnUse">
<stop stop-color="white" stop-opacity="0"/>
<stop offset="1" stop-color="#FE9277"/>
</linearGradient>
</defs>
</svg>
