<?xml version="1.0" encoding="UTF-8"?>
<svg id="Layer_2" data-name="Layer 2" xmlns="http://www.w3.org/2000/svg" viewBox="0 0 33.6 33.6">
  <defs>
    <style>
      .cls-1 {
        fill: #f53838;
      }

      .cls-1, .cls-2 {
        stroke-width: 0px;
      }

      .cls-2 {
        fill: #fff;
      }
    </style>
  </defs>
  <g id="Layer_1-2" data-name="Layer 1">
    <circle class="cls-1" cx="16.8" cy="16.8" r="16.8"/>
    <path class="cls-2" d="m22.05,16.8c0,1.39-.55,2.73-1.54,3.71-.98.98-2.32,1.54-3.71,1.54s-2.73-.55-3.71-1.54c-.98-.98-1.54-2.32-1.54-3.71,0-.3.03-.59.09-.88h-1.84v6.99c0,.49.39.88.88.88h12.24c.23,0,.46-.09.62-.26.16-.17.26-.39.26-.62v-6.99h-1.84c.05.28.09.58.09.88h0Zm-5.25,3.5c.46,0,.91-.09,1.34-.27.42-.18.81-.43,1.14-.76.33-.33.58-.71.76-1.14.18-.42.27-.88.27-1.34,0-.46-.09-.91-.27-1.34-.18-.42-.43-.81-.76-1.14-.33-.33-.71-.58-1.14-.76-.42-.18-.88-.27-1.34-.27-.93,0-1.82.37-2.48,1.03-.66.66-1.02,1.55-1.02,2.48s.37,1.82,1.03,2.48c.66.66,1.55,1.02,2.48,1.02h0Zm4.2-7.17h2.1c.14,0,.27-.06.37-.15.1-.1.15-.23.15-.37v-2.1c0-.14-.06-.27-.15-.37-.1-.1-.23-.15-.37-.15h-2.1c-.14,0-.27.06-.37.15-.1.1-.15.23-.15.37v2.1c0,.29.24.53.53.53h0ZM16.8,0c-4.46,0-8.73,1.77-11.88,4.92C1.77,8.07,0,12.34,0,16.8s1.77,8.73,4.92,11.88c3.15,3.15,7.42,4.92,11.88,4.92,2.21,0,4.39-.43,6.43-1.28,2.04-.84,3.89-2.08,5.45-3.64,1.56-1.56,2.8-3.41,3.64-5.45.84-2.04,1.28-4.22,1.28-6.43s-.43-4.39-1.28-6.43c-.84-2.04-2.08-3.89-3.64-5.45-1.56-1.56-3.41-2.8-5.45-3.64-2.04-.84-4.22-1.28-6.43-1.28h0Zm8.75,23.61c0,1.07-.88,1.94-1.94,1.94h-13.61c-1.07,0-1.94-.88-1.94-1.94v-13.61c0-1.07.88-1.94,1.94-1.94h13.61c1.07,0,1.94.88,1.94,1.94v13.61h0Z"/>
  </g>
</svg>