<?xml version="1.0" encoding="UTF-8"?>
<svg id="Layer_2" data-name="Layer 2" xmlns="http://www.w3.org/2000/svg" viewBox="0 0 33.6 33.6">
  <defs>
    <style>
      .cls-1 {
        fill: #f53838;
      }

      .cls-1, .cls-2 {
        stroke-width: 0px;
      }

      .cls-2 {
        fill: #fff;
      }
    </style>
  </defs>
  <g id="Layer_1-2" data-name="Layer 1">
    <g>
      <circle class="cls-1" cx="16.8" cy="16.8" r="16.8"/>
      <path class="cls-2" d="m16.8,0C7.52,0,0,7.52,0,16.8s7.52,16.8,16.8,16.8,16.8-7.52,16.8-16.8S26.08,0,16.8,0Zm6.83,13.76c0,.14,0,.29,0,.43,0,4.38-3.33,9.42-9.41,9.42-1.8,0-3.56-.51-5.07-1.49.26.03.52.04.79.04,1.55,0,2.98-.53,4.11-1.42-.69-.01-1.36-.24-1.91-.65-.55-.41-.97-.99-1.18-1.64.5.09,1.01.07,1.49-.06-.75-.15-1.42-.56-1.91-1.15-.48-.59-.75-1.33-.75-2.1v-.04c.45.25.96.4,1.5.41-.7-.47-1.2-1.19-1.39-2.01-.19-.82-.06-1.69.37-2.41.83,1.02,1.87,1.86,3.04,2.45,1.17.6,2.46.94,3.78,1.01-.17-.71-.1-1.46.2-2.12.3-.66.81-1.21,1.45-1.56.64-.34,1.38-.47,2.1-.35.72.12,1.38.47,1.88,1.01.74-.15,1.45-.42,2.1-.8-.25.77-.76,1.42-1.45,1.83.66-.08,1.3-.26,1.9-.52-.44.66-1,1.25-1.65,1.71Z"/>
    </g>
  </g>
</svg>